 <svg version="1.0" xmlns="http://www.w3.org/2000/svg" width="700.000000pt" height="543.000000pt" viewBox="0 0 700.000000 543.000000" preserveAspectRatio="xMidYMid meet">
<metadata>
Created by potrace 1.12, written by Peter Selinger 2001-2015
</metadata>
<g transform="translate(0.000000,543.000000) scale(0.100000,-0.100000)" fill="#000000" stroke="none">
<path d="M2957 5333 c-11 -10 -8 -83 3 -83 6 0 10 8 10 19 0 25 17 37 62 45
36 7 37 6 44 -29 12 -65 14 -64 -193 -67 l-187 -3 3 -51 2 -51 -127 -9 -127
-9 -1 -55 -1 -55 -122 -3 -123 -3 0 -59 0 -59 -62 -3 -61 -3 -1 -55 -1 -55
-120 -5 -120 -5 -3 -49 c-2 -36 0 -47 10 -44 7 3 14 14 16 26 4 27 19 38 65
46 l38 7 -3 -48 -3 -48 -67 1 -68 1 0 -59 0 -58 -45 0 c-44 0 -45 1 -39 28 9
36 21 50 46 54 12 2 23 9 26 16 3 10 -8 12 -44 10 l-49 -3 -5 -115 -5 -115
-62 -3 -62 -3 -3 -52 -3 -52 -55 -5 -55 -5 -5 -115 -5 -115 -62 -3 -62 -3 -3
-121 -3 -121 -55 -1 -55 -1 -5 -180 -5 -180 -45 4 c-25 1 -49 4 -55 4 -16 3
-26 -568 -19 -1138 3 -286 7 -522 9 -525 2 -3 24 -4 50 -2 49 4 57 22 15 32
-17 4 -27 16 -33 39 -10 41 -7 45 31 36 27 -5 31 -11 37 -53 4 -26 10 -128 13
-227 l7 -180 38 -3 c21 -2 45 2 52 8 19 16 24 -10 28 -140 l2 -105 60 -1 60
-1 5 -59 5 -59 57 -3 57 -3 3 -117 3 -117 60 0 60 0 5 -55 5 -55 58 -3 57 -3
0 -59 0 -59 67 -3 66 -3 1 -55 1 -55 58 -3 57 -3 0 -53 0 -54 125 -7 124 -7 3
-57 3 -56 120 -5 120 -5 5 -54 5 -53 65 -2 c36 -2 118 -3 183 -4 l117 -2 0
-50 0 -50 565 0 565 0 0 50 0 50 93 0 c52 0 135 3 185 6 l91 7 3 51 3 51 124
5 125 5 -3 58 -2 57 48 1 c26 1 82 3 123 5 l75 2 5 54 5 53 57 3 57 3 3 57 3
57 120 5 120 5 3 49 c2 36 0 47 -10 44 -7 -3 -15 -18 -18 -33 -3 -20 -13 -31
-30 -36 -48 -13 -50 -11 -50 41 l0 50 55 0 55 0 0 55 0 55 65 0 65 0 0 65 0
64 58 3 57 3 9 108 9 107 43 0 43 0 -14 -32 c-8 -19 -23 -35 -36 -38 -38 -9
-35 -30 5 -31 20 -1 42 -2 49 -3 9 -1 13 32 17 119 l5 120 63 0 62 0 0 95 c0
52 3 132 7 178 l6 83 41 -3 c39 -3 41 -4 38 -33 -5 -37 -17 -53 -44 -57 -12
-2 -23 -9 -26 -16 -3 -10 9 -12 48 -10 l52 3 -1 148 c-1 82 1 186 5 233 l7 84
48 0 c47 0 47 0 40 -28 -4 -17 -19 -32 -39 -41 -43 -20 -35 -35 20 -39 l46 -3
7 473 c4 260 3 660 -1 888 l-9 415 -60 5 -60 5 -3 120 -3 120 -57 0 -57 0 -3
117 -3 117 -62 3 -62 3 -5 60 -5 59 -51 -3 -52 -2 -7 115 -7 115 -57 3 -56 3
-3 57 -3 57 -62 3 -62 3 -3 57 -3 57 -57 3 -57 3 -3 57 -3 57 -66 3 -66 3 -1
55 -1 55 -120 5 -120 5 -3 57 -3 57 -117 3 -117 3 -3 58 -3 57 -158 0 c-87 0
-199 3 -249 6 l-92 7 0 40 c0 36 2 39 23 33 12 -3 30 -6 40 -6 10 0 22 -11 27
-25 5 -14 14 -25 19 -25 9 0 20 77 12 86 -7 7 -1237 5 -1244 -3z m873 -413 l0
-59 123 -3 122 -3 5 -55 5 -55 55 -5 55 -5 5 -55 5 -55 60 -5 60 -5 5 -55 5
-55 55 0 55 0 3 -62 3 -62 62 -3 62 -3 5 -110 5 -110 43 0 c50 0 58 14 19 33
-25 12 -47 46 -47 73 0 6 21 9 48 7 l47 -3 5 -175 5 -175 49 -3 c36 -2 47 0
44 10 -3 7 -15 15 -29 16 -31 5 -35 10 -43 55 l-7 38 48 -3 48 -3 5 -180 c3
-99 8 -179 13 -177 4 1 28 2 53 2 52 0 58 21 9 30 -23 4 -31 12 -36 38 -6 32
-6 32 31 32 38 0 38 0 45 -47 4 -27 9 -234 11 -461 3 -296 8 -412 15 -410 8 3
11 40 10 111 -2 102 -1 107 18 107 24 0 27 8 7 24 -8 6 -16 31 -18 56 -3 43
-2 45 25 48 31 4 36 17 8 25 -21 5 -44 66 -31 80 4 5 25 7 46 5 l39 -3 -1
-945 c-1 -520 -5 -969 -9 -998 -5 -41 -10 -52 -22 -48 -8 3 -23 6 -33 6 -15 0
-17 5 -11 27 4 16 17 32 29 38 31 14 27 25 -8 25 -27 0 -30 3 -30 31 0 38 16
69 35 69 8 0 15 5 15 10 0 6 -11 10 -24 10 -33 0 -35 6 -26 65 5 30 4 52 -2
56 -5 3 -8 28 -7 55 1 27 -2 50 -7 52 -5 1 -11 -144 -15 -355 -3 -197 -10
-376 -15 -398 -9 -37 -12 -40 -47 -43 -41 -4 -41 -4 -28 31 6 16 20 26 40 30
43 9 39 23 -10 30 -22 3 -43 8 -46 11 -3 3 -1 22 4 43 7 31 14 39 36 41 44 5
31 23 -15 20 l-43 -3 -3 -172 -2 -172 -58 -3 -57 -3 -5 -55 -5 -55 -57 -3 -57
-3 -3 -57 -3 -57 -62 -3 -63 -3 0 -54 c0 -65 3 -64 -150 -68 l-104 -2 3 -53 2
-52 -436 0 -436 0 2 52 3 53 -119 3 c-70 2 -124 7 -133 14 -8 8 -12 28 -10 57
l2 46 -59 5 -60 5 -3 57 -3 57 -57 3 -57 3 -5 54 -5 54 -60 1 -60 1 -3 68 -3
67 -59 0 -59 0 -3 111 -3 112 -60 1 -60 1 -3 120 -3 120 -57 0 -57 0 -5 175
-5 175 -49 3 c-36 2 -47 0 -44 -10 3 -7 15 -15 28 -18 16 -4 27 -18 36 -43
l13 -37 -48 0 -48 0 -6 83 c-4 45 -7 202 -7 348 0 146 -3 269 -6 272 -4 3 -15
2 -26 -4 -13 -7 -16 -14 -10 -22 6 -7 12 -28 14 -47 3 -32 0 -35 -24 -38 -34
-4 -35 -9 -3 -38 18 -16 25 -34 25 -59 0 -32 -2 -35 -30 -35 -35 0 -39 -11 -8
-25 12 -6 25 -22 29 -37 7 -26 5 -28 -26 -28 l-33 0 -9 98 c-4 53 -8 455 -8
892 0 437 4 839 8 893 l9 97 32 0 c31 0 32 -2 28 -31 -3 -20 -12 -33 -28 -39
-33 -13 -30 -30 6 -30 23 0 30 -5 30 -19 0 -37 -19 -69 -41 -73 -12 -2 -24 -9
-27 -15 -2 -9 11 -13 47 -13 l51 0 0 148 c0 82 3 190 7 241 l6 92 56 -2 56 -3
9 117 9 117 37 0 c20 0 39 -3 42 -6 12 -12 -18 -67 -44 -80 -43 -22 -34 -35
20 -32 l47 3 5 115 5 115 62 3 62 3 3 57 3 57 120 5 120 5 3 48 c3 53 -15 66
-25 17 -7 -35 -6 -35 -55 -44 l-38 -7 0 51 0 50 180 0 180 0 0 51 c0 54 -19
65 -30 18 -4 -16 -14 -25 -30 -27 -14 -2 -31 -9 -37 -14 -10 -8 -13 0 -13 35
l0 46 58 4 c31 2 227 4 435 5 l377 2 0 -60z m1179 20 c7 -4 20 -22 27 -39 16
-37 7 -44 -48 -39 -32 3 -33 5 -36 51 -3 47 -2 48 20 42 13 -4 29 -11 37 -15z
m-709 -244 c0 -8 3 -21 6 -29 4 -12 -1 -13 -28 -8 -24 5 -34 13 -36 29 -3 19
1 22 27 22 20 0 31 -5 31 -14z m130 -126 c0 -36 -20 -40 -50 -10 -29 29 -25
40 15 40 32 0 35 -2 35 -30z m1101 -144 c7 -26 6 -27 -24 -24 -28 3 -32 7 -35
35 -3 30 -2 31 24 24 19 -5 30 -16 35 -35z m-3971 -221 c0 -34 -2 -35 -36 -35
-29 0 -35 3 -30 16 3 9 6 20 6 25 0 9 34 27 53 28 4 1 7 -15 7 -34z m4221
-128 c7 -26 6 -27 -32 -27 -38 0 -39 1 -39 34 0 32 1 33 32 27 23 -5 34 -14
39 -34z m92 -206 c15 -6 26 -20 29 -35 5 -24 2 -26 -28 -26 -32 0 -34 2 -34
35 0 39 -1 39 33 26z m-4567 -167 c-3 -8 -18 -14 -34 -14 -26 0 -29 3 -24 25
2 14 16 32 31 40 25 13 26 12 29 -12 2 -13 1 -31 -2 -39z m4717 -82 c28 -25
19 -66 -15 -70 -34 -4 -37 -19 -6 -24 18 -2 24 -12 29 -40 6 -38 5 -38 -28
-38 l-33 0 0 50 c0 28 -4 50 -10 50 -5 0 -10 23 -10 50 0 50 0 50 28 44 15 -4
35 -14 45 -22z m-4833 -252 c0 -39 -1 -40 -35 -40 -33 0 -35 1 -29 28 8 33 13
39 39 45 11 3 21 5 23 6 1 0 2 -17 2 -39z m118 -1897 c3 -30 2 -31 -24 -24
-19 5 -30 16 -35 35 -7 26 -6 27 24 24 28 -3 32 -7 35 -35z m4475 -103 c-6
-23 -8 -25 -45 -34 -26 -6 -28 -4 -28 24 0 28 2 30 39 30 34 0 38 -2 34 -20z
m-3399 0 c17 -6 26 -17 26 -30 0 -17 -5 -21 -27 -18 -22 2 -29 9 -31 31 -4 30
-3 31 32 17z m-943 -138 c4 -29 2 -39 -5 -32 -5 5 -20 10 -32 10 -26 0 -28 3
-38 43 -7 28 -6 28 31 25 37 -3 38 -5 44 -46z m1092 -109 c11 -6 8 -33 -4 -33
-18 0 -46 19 -53 35 -4 12 0 14 22 9 15 -4 30 -9 35 -11z m-843 -233 c0 -22
-4 -40 -9 -40 -28 0 -59 21 -63 44 -5 26 4 32 50 35 19 1 22 -4 22 -39z m508
-478 l3 -44 -33 7 c-40 9 -55 22 -64 58 l-6 28 48 -3 49 -3 3 -43z"></path>
<path d="M3175 4879 c-10 -15 3 -25 16 -12 7 7 7 13 1 17 -6 3 -14 1 -17 -5z"></path>
<path d="M3710 4876 c0 -12 10 -16 40 -16 22 0 40 5 40 10 0 6 -11 10 -24 10
-13 0 -31 3 -40 6 -11 4 -16 1 -16 -10z"></path>
<path d="M3947 4771 c-3 -11 -2 -22 1 -25 10 -10 102 -6 102 4 0 6 -16 10 -35
10 -22 0 -38 6 -41 15 -8 21 -21 19 -27 -4z"></path>
<path d="M2668 4646 c-24 -18 -22 -28 4 -24 13 2 24 11 26 21 4 20 -6 21 -30
3z"></path>
<path d="M2553 4560 c-9 -23 -18 -30 -37 -30 -42 0 -30 -18 15 -22 22 -2 42
-2 45 1 7 8 4 81 -4 81 -4 0 -13 -13 -19 -30z"></path>
<path d="M4455 4280 c3 -5 8 -10 11 -10 2 0 4 5 4 10 0 6 -5 10 -11 10 -5 0
-7 -4 -4 -10z"></path>
<path d="M2303 4219 c-4 -22 -14 -34 -34 -41 -43 -15 -35 -30 14 -26 l42 3 3
48 c4 53 -15 66 -25 16z"></path>
<path d="M2306 4054 c-4 -9 -4 -19 -2 -21 8 -8 26 8 26 23 0 19 -16 18 -24 -2z"></path>
<path d="M2178 3663 c-3 -104 -2 -117 13 -108 12 8 12 205 0 205 -5 0 -11 -44
-13 -97z"></path>
<path d="M4822 3603 l3 -48 43 -3 c25 -2 42 1 42 7 0 6 -11 11 -25 11 -26 0
-29 4 -39 53 -10 45 -27 31 -24 -20z"></path>
<path d="M2175 3449 c-4 -6 -5 -13 -2 -16 7 -7 27 6 27 18 0 12 -17 12 -25 -2z"></path>
<path d="M2170 2713 c0 -5 4 -15 10 -23 11 -18 25 -7 17 15 -6 15 -27 21 -27
8z"></path>
<path d="M2170 2480 c-12 -7 -12 -12 -2 -22 6 -6 12 -27 12 -45 0 -18 5 -33
10 -33 12 0 14 97 2 104 -4 2 -14 1 -22 -4z"></path>
<path d="M2250 1881 c0 -6 8 -11 18 -11 25 0 42 -19 42 -47 0 -13 5 -23 11
-23 6 0 9 17 7 43 -3 41 -4 42 -40 45 -22 2 -38 -1 -38 -7z"></path>
<path d="M2370 1521 c0 -5 10 -11 23 -13 15 -2 25 -13 32 -35 13 -47 27 -41
23 10 -3 41 -4 42 -40 45 -21 2 -38 -1 -38 -7z"></path>
<path d="M2523 1293 c-37 -5 -45 -23 -10 -23 29 0 47 -18 47 -47 0 -13 5 -23
11 -23 13 0 8 93 -6 95 -5 1 -25 0 -42 -2z"></path>
<path d="M2610 1040 c0 -5 12 -13 26 -16 14 -4 30 -17 34 -30 14 -37 30 -28
30 16 l0 40 -45 0 c-25 0 -45 -4 -45 -10z"></path>
<path d="M2802 929 c2 -7 10 -15 17 -17 8 -3 12 1 9 9 -2 7 -10 15 -17 17 -8
3 -12 -1 -9 -9z"></path>
<path d="M4707 933 c-10 -10 -8 -93 2 -93 5 0 12 12 16 27 9 37 23 53 46 53
11 0 19 5 19 10 0 11 -73 14 -83 3z"></path>
<path d="M3100 572 c0 -5 17 -13 38 -18 27 -7 38 -15 40 -31 6 -39 23 -25 20
15 -3 37 -3 37 -50 40 -27 2 -48 -1 -48 -6z"></path>
<path d="M4337 573 c-11 -10 -8 -73 2 -73 5 0 11 12 13 28 2 22 8 28 36 30 17
2 32 7 32 13 0 10 -73 13 -83 2z"></path>
<path d="M3350 452 c0 -12 24 -22 51 -22 12 0 23 -10 29 -25 15 -38 32 -31 28
13 l-3 37 -52 3 c-29 2 -53 -1 -53 -6z"></path>
<path d="M4087 453 c-10 -9 -9 -73 1 -73 5 0 14 11 20 24 6 14 22 26 41 29 17
4 31 11 31 17 0 11 -83 14 -93 3z"></path>
<path d="M4230 5331 c0 -5 17 -11 38 -13 32 -3 37 -7 40 -30 5 -43 24 -33 20
10 -3 37 -3 37 -50 40 -27 2 -48 -1 -48 -7z"></path>
<path d="M2587 5213 c-10 -10 -8 -83 2 -83 5 0 14 13 19 29 7 20 19 30 41 34
17 4 31 11 31 17 0 11 -83 14 -93 3z"></path>
<path d="M4672 5209 c2 -7 10 -15 17 -17 8 -3 12 1 9 9 -2 7 -10 15 -17 17 -8
3 -12 -1 -9 -9z"></path>
<path d="M2337 5093 c-10 -10 -8 -81 2 -87 11 -7 28 13 32 39 2 10 15 22 28
25 44 10 37 30 -11 30 -25 0 -48 -3 -51 -7z"></path>
<path d="M4922 5089 c2 -7 10 -15 17 -17 8 -3 12 1 9 9 -2 7 -10 15 -17 17 -8
3 -12 -1 -9 -9z"></path>
<path d="M2087 4973 c-11 -10 -8 -73 2 -73 5 0 11 12 13 28 2 22 8 28 36 30
17 2 32 7 32 13 0 10 -73 13 -83 2z"></path>
<path d="M1967 4853 c-4 -3 -7 -26 -7 -50 0 -53 25 -60 38 -11 5 22 16 34 32
38 13 3 25 11 28 18 4 13 -79 18 -91 5z"></path>
<path d="M1580 4450 c0 -54 16 -67 26 -22 9 38 23 52 50 52 13 0 24 5 24 10 0
6 -22 10 -50 10 l-50 0 0 -50z"></path>
<path d="M5602 4368 c3 -7 15 -15 28 -18 15 -3 27 -15 30 -30 3 -13 11 -25 18
-28 10 -3 12 7 10 39 l-3 44 -44 3 c-32 2 -42 0 -39 -10z"></path>
<path d="M5770 4262 c0 -10 41 -35 47 -28 11 11 -7 36 -27 36 -11 0 -20 -3
-20 -8z"></path>
<path d="M1337 4143 c-11 -10 -8 -73 2 -73 5 0 11 12 13 28 2 21 9 28 31 30
15 2 27 8 27 13 0 10 -63 13 -73 2z"></path>
<path d="M5850 4020 c0 -5 10 -10 23 -10 29 0 47 -18 47 -47 0 -13 5 -23 10
-23 6 0 10 20 10 45 l0 45 -45 0 c-25 0 -45 -4 -45 -10z"></path>
<path d="M1217 3903 c-11 -10 -8 -73 2 -73 5 0 11 12 13 28 2 19 9 28 26 30
12 2 22 8 22 13 0 10 -53 12 -63 2z"></path>
<path d="M6030 3781 c0 -10 30 -24 37 -17 3 3 2 9 -2 15 -8 13 -35 15 -35 2z"></path>
<path d="M1090 3500 c0 -59 13 -65 26 -12 7 27 15 38 32 40 38 6 24 22 -18 22
l-40 0 0 -50z"></path>
<path d="M6150 3423 c1 -11 26 -43 34 -43 16 0 0 45 -16 48 -10 2 -18 0 -18
-5z"></path>
<path d="M6161 3306 c-8 -10 -9 -16 -1 -21 5 -3 10 -24 10 -46 0 -35 -3 -39
-25 -39 -30 0 -33 -16 -5 -23 16 -4 20 -14 20 -46 0 -23 1 -44 3 -48 1 -5 -10
-9 -25 -11 -33 -4 -35 -13 -8 -30 19 -12 20 -23 20 -267 0 -244 -1 -255 -20
-267 -27 -17 -25 -26 8 -30 25 -3 27 -6 24 -43 -2 -22 -8 -44 -13 -50 -14 -14
-11 -25 6 -25 18 0 22 -75 5 -85 -12 -7 5 -35 21 -35 5 0 9 237 9 540 0 303
-4 540 -9 540 -5 0 -14 -6 -20 -14z"></path>
<path d="M960 3150 c0 -27 5 -50 10 -50 6 0 10 23 10 50 0 28 -4 50 -10 50 -5
0 -10 -22 -10 -50z"></path>
<path d="M966 3072 c-7 -7 -8 -947 -1 -954 8 -8 65 3 65 13 0 5 -7 9 -15 9
-20 0 -35 32 -35 74 0 34 2 36 35 36 19 0 35 5 35 10 0 6 -8 10 -18 10 -40 0
-42 12 -42 335 0 323 2 335 42 335 10 0 18 5 18 10 0 6 -16 10 -35 10 -30 0
-35 3 -35 23 0 12 7 35 15 51 8 15 15 29 15 31 0 6 -39 12 -44 7z"></path>
<path d="M6167 2154 c-8 -8 1 -24 14 -24 5 0 9 7 9 15 0 15 -12 20 -23 9z"></path>
<path d="M960 2056 c0 -19 5 -38 10 -41 6 -4 10 10 10 34 0 23 -4 41 -10 41
-5 0 -10 -15 -10 -34z"></path>
<path d="M6050 1837 c0 -29 -18 -47 -47 -47 -13 0 -23 -5 -23 -11 0 -6 17 -9
43 -7 42 3 42 3 45 46 2 25 -1 42 -7 42 -6 0 -11 -10 -11 -23z"></path>
<path d="M1092 1703 c3 -48 3 -48 41 -51 21 -2 37 1 37 7 0 6 -9 11 -20 11
-21 0 -40 27 -40 59 0 12 -5 21 -11 21 -6 0 -9 -19 -7 -47z"></path>
<path d="M5920 1477 c0 -28 -17 -47 -42 -47 -10 0 -18 -4 -18 -10 0 -5 18 -10
40 -10 l40 0 0 45 c0 25 -4 45 -10 45 -5 0 -10 -10 -10 -23z"></path>
<path d="M1212 1343 c3 -33 7 -38 31 -41 31 -4 37 13 7 21 -14 3 -20 14 -20
31 0 14 -5 26 -11 26 -6 0 -9 -16 -7 -37z"></path>
<path d="M5800 1247 c0 -29 -29 -57 -58 -57 -12 0 -22 -5 -22 -11 0 -6 19 -9
48 -7 l47 3 3 48 c2 28 -1 47 -7 47 -6 0 -11 -11 -11 -23z"></path>
<path d="M1460 991 c0 -47 6 -52 53 -44 42 6 50 23 11 23 -19 0 -28 7 -37 30
-16 41 -27 38 -27 -9z"></path>
<path d="M5548 878 c-2 -28 -8 -34 -30 -36 -43 -5 -33 -22 12 -22 l40 0 0 45
c0 52 -17 61 -22 13z"></path>
<path d="M5421 766 c-6 -15 -20 -25 -40 -29 -19 -4 -31 -13 -31 -22 0 -13 10
-15 48 -13 l47 3 3 43 c3 46 -13 57 -27 18z"></path>
<path d="M1715 590 c3 -5 8 -10 11 -10 2 0 4 5 4 10 0 6 -5 10 -11 10 -5 0 -7
-4 -4 -10z"></path>
<path d="M5169 528 c-10 -24 -22 -34 -43 -38 -16 -3 -31 -11 -34 -17 -3 -10
12 -13 52 -13 l56 0 0 50 c0 58 -10 64 -31 18z"></path>
<path d="M5047 378 c-7 -25 -3 -33 12 -23 13 8 15 45 2 45 -5 0 -11 -10 -14
-22z"></path>
<path d="M4792 288 c-6 -26 -15 -34 -37 -38 -16 -3 -30 -11 -33 -18 -3 -10 8
-12 44 -10 l49 3 3 48 c4 54 -13 64 -26 15z"></path>
<path d="M2202 268 l3 -43 48 -3 c55 -4 65 15 10 20 -35 3 -38 6 -41 36 -5 48
-24 39 -20 -10z"></path>
<path d="M4560 172 c0 -26 -20 -42 -52 -42 -46 0 -32 -18 18 -22 25 -2 47 -1
50 1 9 9 4 81 -6 81 -5 0 -10 -8 -10 -18z"></path>
<path d="M2450 147 c0 -19 2 -36 4 -38 8 -8 86 3 86 11 0 5 -15 10 -32 12 -25
2 -34 8 -36 26 -5 34 -22 26 -22 -11z"></path>
<path d="M4180 35 c0 -19 5 -35 10 -35 6 0 10 16 10 35 0 19 -4 35 -10 35 -5
0 -10 -16 -10 -35z"></path>
<path d="M2830 30 c0 -17 5 -30 10 -30 6 0 10 13 10 30 0 17 -4 30 -10 30 -5
0 -10 -13 -10 -30z"></path>
</g>
</svg>