 <svg version="1.0" xmlns="http://www.w3.org/2000/svg" width="700.000000pt" height="543.000000pt" viewBox="0 0 700.000000 543.000000" preserveAspectRatio="xMidYMid meet">
<metadata>
Created by potrace 1.12, written by Peter Selinger 2001-2015
</metadata>
<g transform="translate(0.000000,543.000000) scale(0.100000,-0.100000)" fill="#000000" stroke="none">
<path d="M187 5393 c-2 -21 -2 -41 0 -45 2 -5 97 -8 209 -8 l206 0 -4 -42 -3
-43 155 -5 155 -5 0 -30 c1 -29 2 -30 55 -35 l54 -5 0 -45 1 -45 45 0 c25 -1
66 -2 93 -3 l47 -2 0 -39 0 -40 53 -3 52 -3 3 -37 3 -38 50 0 49 0 0 -44 0
-45 53 -3 52 -3 1 -73 c1 -41 6 -78 11 -83 4 -4 25 -4 45 0 42 10 48 2 48 -54
0 -33 1 -34 48 -37 l47 -3 5 -80 5 -80 34 -3 c44 -4 63 14 28 27 -22 9 -47 38
-47 55 0 3 18 6 39 6 l39 0 8 -90 7 -90 38 0 c39 0 39 0 40 -42 4 -134 1 -123
38 -126 51 -5 57 11 16 42 -42 32 -38 46 15 46 l39 0 3 -87 3 -87 48 3 47 3 1
-44 c4 -136 -1 -123 47 -126 47 -3 57 13 18 28 -32 12 -53 48 -32 56 8 3 27 4
43 2 l28 -3 3 -87 3 -87 47 -3 47 -3 5 -75 5 -75 38 -3 c43 -4 49 11 10 30
-15 7 -29 21 -31 31 -3 16 2 18 35 15 l38 -3 5 -85 5 -85 50 0 50 0 5 -39 c5
-39 6 -40 45 -40 l40 -1 3 -87 3 -88 49 0 50 0 2 -37 c1 -21 2 -58 2 -83 l1
-45 55 0 55 0 3 -47 c3 -47 4 -48 38 -48 37 0 36 4 39 -115 l2 -40 49 -1 49
-1 3 -46 3 -46 52 -3 52 -3 3 -122 3 -122 -53 -3 c-52 -3 -53 -4 -58 -38 -5
-34 -7 -35 -52 -38 l-47 -3 -3 -42 c-3 -41 -4 -42 -40 -45 -36 -3 -38 -5 -38
-38 0 -40 12 -43 34 -9 23 35 36 31 36 -11 0 -35 -1 -36 -37 -32 l-38 3 0 -40
0 -40 -58 -3 c-57 -3 -58 -4 -57 -30 4 -48 1 -51 -47 -54 l-48 -3 -5 -80 -5
-80 -42 1 c-43 1 -43 1 -43 -35 0 -50 -9 -59 -60 -63 -44 -3 -45 -4 -50 -43
-5 -40 -5 -40 -52 -43 -46 -3 -47 -4 -50 -40 -3 -37 -3 -37 -48 -37 l-45 0 -5
-90 -5 -90 -52 -3 -53 -3 0 -35 0 -34 -49 0 -50 0 -3 -42 -3 -43 -45 -3 c-25
-2 -48 -7 -53 -11 -4 -4 -8 -40 -8 -79 l-1 -72 -29 0 c-34 0 -40 24 -9 40 29
15 25 32 -7 28 -27 -3 -28 -5 -33 -83 l-5 -80 -52 -3 c-50 -3 -52 -4 -55 -35
-3 -31 -5 -32 -50 -35 l-48 -3 0 -37 c0 -20 -3 -61 -6 -89 -7 -52 -7 -53 -41
-53 -27 0 -34 4 -31 17 2 10 16 24 31 31 39 19 33 34 -10 30 l-38 -3 -3 -72
-3 -72 -52 -3 -52 -3 -3 -47 -3 -48 -49 0 -49 0 -3 -47 -3 -48 -52 -3 -53 -3
0 -35 c0 -34 0 -34 -44 -34 -44 0 -45 0 -48 -37 l-3 -38 -95 -5 -95 -5 -3 -32
c-4 -37 9 -43 29 -13 8 10 26 22 42 26 26 6 27 4 27 -30 l0 -35 -97 -3 -98 -3
3 -33 c1 -19 -3 -35 -10 -37 -7 -3 -56 -6 -108 -8 l-95 -2 -3 -33 c-2 -17 -1
-32 2 -32 3 0 22 11 42 25 20 14 40 22 45 19 11 -7 12 -51 0 -58 -4 -3 -73 -7
-152 -10 l-144 -5 3 -35 4 -36 -54 -1 c-97 -1 -241 -8 -244 -12 -2 -2 -1 -18
2 -35 l6 -32 1114 0 1114 0 0 24 c0 20 4 23 21 19 12 -4 24 -14 26 -25 3 -10
14 -18 24 -18 15 0 19 7 19 33 l0 34 -112 6 c-62 4 -155 7 -205 7 l-93 0 0 35
c0 33 -2 35 -34 35 -18 0 -61 3 -95 6 l-61 7 2 255 3 256 35 0 35 1 9 83 8 82
48 0 49 0 3 37 c3 38 4 38 50 41 l47 3 3 47 3 47 50 5 50 5 3 77 3 77 47 3
c46 3 47 3 50 41 l3 37 49 0 49 0 3 43 3 42 50 5 c50 5 50 5 55 45 5 38 7 40
45 45 l40 5 3 77 3 78 49 0 49 0 3 48 3 47 58 3 57 3 0 34 c0 32 2 34 38 37
41 3 37 -9 41 131 l1 47 50 0 50 0 0 34 0 35 53 3 52 3 5 45 5 45 53 3 54 3
-3 37 c-1 20 -1 54 0 75 1 35 2 37 36 37 41 0 45 -13 10 -36 -29 -19 -24 -34
11 -34 29 0 31 4 39 93 l7 68 41 -3 c41 -3 42 -4 47 -43 l5 -40 53 -3 52 -3 0
-74 0 -74 43 -3 42 -3 3 -48 3 -49 47 4 47 3 5 -80 5 -80 38 -3 c42 -4 50 13
13 27 -21 9 -36 29 -36 52 0 5 18 9 40 9 l40 0 2 -47 c1 -27 3 -66 3 -88 l1
-40 47 -3 c27 -2 48 -8 48 -15 1 -7 2 -23 3 -37 1 -23 5 -25 54 -28 l52 -3 0
-90 0 -89 49 0 50 0 3 -37 3 -38 50 0 50 0 5 -85 5 -85 45 -5 c43 -5 45 -7 50
-40 5 -34 7 -35 52 -38 l47 -3 3 -77 3 -77 50 -5 50 -5 3 -47 3 -48 40 0 39 0
1 -42 c1 -24 2 -59 3 -78 l1 -35 50 0 50 0 5 -135 c5 -128 6 -135 25 -132 29
5 30 10 12 30 -25 28 -21 42 13 42 31 0 42 23 16 33 -8 3 -20 15 -26 26 -9 19
-8 21 13 21 37 0 47 -53 47 -239 l0 -161 -40 0 c-47 0 -54 20 -15 46 34 22 31
36 -7 32 l-33 -3 -3 -82 -3 -83 -47 -1 c-26 0 -67 -4 -92 -7 -37 -6 -46 -11
-48 -29 -4 -26 5 -28 32 -8 29 22 46 18 46 -9 l0 -24 -187 -4 c-104 -2 -193
-6 -199 -10 -6 -4 -9 -21 -6 -38 l4 -30 1318 0 1318 0 4 30 c3 17 1 33 -4 36
-4 3 -57 7 -116 8 -59 2 -126 4 -149 5 -41 1 -42 2 -45 38 l-3 36 -50 1 c-27
1 -76 3 -107 4 l-57 2 2 43 c2 42 2 42 -38 47 -37 5 -40 8 -45 40 -5 35 -6 35
-58 38 l-54 3 4 42 3 42 -50 5 c-48 5 -50 6 -55 40 -5 33 -7 35 -50 40 -42 5
-45 7 -50 40 -5 34 -5 34 -52 31 l-48 -3 0 55 0 55 -52 -2 -53 -1 -5 80 -5 80
-47 3 c-46 3 -47 4 -50 40 -3 36 -4 37 -48 42 l-45 5 -1 45 c-1 25 -2 62 -3
83 l-1 37 -46 0 c-32 0 -44 -4 -42 -12 3 -7 14 -14 26 -16 11 -2 26 -10 32
-18 11 -12 6 -14 -28 -14 l-40 0 -6 73 c-4 39 -7 90 -9 112 -2 37 -4 40 -34
43 -39 4 -43 -10 -8 -26 38 -17 32 -42 -10 -42 l-34 0 -3 78 -3 77 -40 5 c-38
5 -40 7 -45 45 l-5 40 -52 3 -53 3 -1 37 c-1 20 -2 57 -3 82 l-1 45 -40 -4
c-22 -1 -42 -5 -45 -7 -2 -3 10 -16 28 -30 41 -32 40 -44 -2 -44 l-34 0 -8 88
-9 87 -42 3 -42 3 -3 77 -3 77 -39 0 c-45 0 -60 -21 -21 -31 14 -3 30 -15 36
-25 9 -17 6 -19 -30 -19 l-39 0 -7 84 -7 85 -47 3 -46 3 -5 80 -5 80 -39 0
c-49 0 -55 -15 -16 -37 42 -24 40 -48 -4 -48 l-34 0 -7 84 -7 85 -36 3 c-28 2
-38 8 -40 23 -9 60 -9 60 -55 57 l-44 -4 -9 89 -9 88 -45 5 c-35 4 -45 9 -48
25 -9 61 -9 60 -56 57 l-45 -4 -3 89 -3 88 -50 0 -50 0 -3 37 c-3 36 -4 37
-50 40 l-47 3 -3 168 -2 167 49 0 50 0 3 48 3 47 52 3 c50 3 52 4 55 35 3 30
6 32 48 37 l45 5 5 85 5 85 48 3 c46 3 47 4 47 37 0 34 0 34 53 37 l52 3 5 45
c5 43 6 45 42 48 l36 3 7 80 7 79 39 0 c25 0 39 -5 39 -13 0 -19 -21 -37 -42
-37 -10 0 -18 -7 -18 -16 0 -12 9 -14 38 -12 l37 3 5 80 5 80 48 5 48 5 4 73
c2 41 6 76 8 79 3 2 22 3 43 1 l39 -3 -38 -24 c-44 -27 -38 -44 14 -39 l34 3
5 75 5 75 40 1 40 0 5 50 5 49 50 0 c50 0 50 0 55 35 5 34 7 35 55 40 l50 5 5
85 5 85 40 1 c39 0 40 1 45 40 5 38 6 39 47 42 42 3 42 3 45 45 l3 42 52 0 52
-1 3 36 c3 34 5 35 48 40 50 6 45 -8 49 133 l1 47 49 0 50 0 3 38 3 37 53 3
52 3 0 40 0 39 53 2 c28 0 72 1 97 2 l45 1 5 45 5 45 52 3 c50 3 52 4 55 35
l3 32 140 5 140 5 3 33 c2 17 1 32 -2 32 -3 0 -22 -11 -42 -25 -41 -28 -58
-22 -52 16 l3 24 203 3 202 2 0 45 0 45 -1110 0 -1110 0 0 -45 0 -45 200 0
200 0 0 -39 c0 -22 5 -43 10 -46 6 -4 49 -7 95 -6 l83 0 7 -82 c3 -45 5 -160
3 -256 l-3 -174 -50 -1 -50 -1 -5 -75 -5 -75 -42 -3 c-40 -3 -42 -4 -45 -40
-3 -37 -4 -37 -53 -42 l-50 -5 0 -40 0 -40 -50 -5 -50 -5 -3 -77 -3 -77 -52
-3 -52 -3 -3 -47 -3 -48 -39 0 c-39 0 -39 0 -42 -42 l-3 -43 -50 0 -50 0 -3
-83 -3 -83 -47 2 -47 3 -3 -47 -3 -47 -49 0 -49 0 -3 -37 -3 -38 -54 -3 -53
-3 4 -32 c8 -49 2 -55 -47 -49 -53 6 -55 3 -58 -94 l-2 -69 -50 0 c-49 0 -50
-1 -51 -30 -2 -64 -1 -64 -51 -67 l-47 -3 0 -40 -1 -40 -102 -3 -103 -3 -2 48
c-1 26 -2 66 -3 88 0 40 0 40 -40 41 -39 0 -40 1 -45 40 l-5 39 -50 0 -50 0
-1 45 c-1 25 -2 64 -2 88 l-2 42 -40 0 c-22 0 -40 -3 -40 -7 0 -3 15 -19 33
-34 l32 -28 -37 -1 -36 0 -9 73 -8 72 -42 3 -42 3 -3 87 -3 87 -50 5 c-48 5
-50 6 -55 40 -5 35 -5 35 -55 35 l-50 0 -5 88 c-3 48 -8 87 -12 87 -5 0 -21 0
-38 0 -38 0 -38 -10 0 -32 18 -10 30 -25 30 -38 0 -17 -6 -20 -40 -20 l-40 0
-1 53 c-3 121 0 112 -41 115 -21 2 -38 9 -39 15 0 7 -1 28 -2 47 l-2 35 -51
-3 -51 -4 -8 86 -7 85 -46 3 -47 3 -5 75 -5 75 -42 3 -43 3 0 220 0 219 44 0
c43 0 45 1 48 33 l3 32 110 5 c103 5 110 6 107 25 -6 33 -16 36 -58 16 -43
-21 -57 -16 -52 20 l3 24 198 3 197 2 0 45 0 45 -1474 0 -1474 0 -5 -37z m893
-259 c0 -14 -3 -14 -15 -4 -8 7 -15 14 -15 16 0 2 7 4 15 4 8 0 15 -7 15 -16z
m1415 -134 c0 -55 -2 -60 -20 -58 -16 2 -21 12 -23 47 -4 54 2 71 25 71 15 0
18 -9 18 -60z m2769 28 c4 -18 9 -48 13 -65 l5 -33 -46 0 c-46 0 -46 0 -42 33
3 26 8 33 30 35 27 3 37 22 11 22 -8 0 -19 9 -25 20 -10 18 -8 20 19 20 24 0
30 -5 35 -32z m361 -238 c-16 -16 -32 -30 -37 -30 -4 0 -8 14 -8 30 0 28 3 30
37 30 l37 0 -29 -30z m-4045 -80 c13 -8 13 -10 -2 -10 -9 0 -20 5 -23 10 -8
13 5 13 25 0z m3570 -10 c0 -16 -7 -20 -31 -20 -40 0 -21 27 29 39 1 1 2 -8 2
-19z m-2464 -165 c18 -14 18 -14 -8 -15 -18 0 -28 5 -28 15 0 19 11 19 36 0z
m2174 -180 c0 -34 -1 -35 -40 -35 -26 0 -40 4 -40 13 0 17 21 43 40 50 33 12
40 7 40 -28z m378 23 c-2 -6 -14 -15 -26 -19 -18 -7 -22 -5 -22 11 0 15 7 20
26 20 15 0 24 -5 22 -12z m-2044 -429 c35 -28 33 -39 -9 -39 -32 0 -35 2 -35
30 0 35 8 37 44 9z m1424 -251 c-22 -32 -38 -34 -38 -4 0 21 5 26 26 26 25 0
26 -1 12 -22z m-488 -98 c0 -5 0 -13 0 -17 0 -5 -12 -11 -25 -15 -27 -7 -34 9
-13 30 15 15 38 16 38 2z m-530 -171 c14 -26 13 -29 -15 -29 -21 0 -25 5 -25
30 0 22 4 28 15 24 9 -4 20 -15 25 -25z m724 -70 c-10 -11 -27 -25 -36 -30
-15 -8 -18 -5 -18 21 0 28 3 30 37 30 36 0 36 0 17 -21z m-1504 -163 c0 -2 3
-11 6 -19 7 -19 -29 -12 -47 9 -9 11 -6 14 15 14 14 0 26 -2 26 -4z m1203
-188 c-9 -34 -23 -48 -49 -48 -21 0 -24 5 -24 35 0 34 1 35 39 35 36 0 39 -2
34 -22z m-1015 -85 c5 -18 -10 -16 -34 2 -18 15 -18 15 5 13 14 -2 26 -9 29
-15z m1000 -8 c-3 -3 -9 2 -12 12 -6 14 -5 15 5 6 7 -7 10 -15 7 -18z m-778
-221 c0 -3 -5 -14 -10 -25 -15 -27 -37 -24 -42 6 -5 22 -2 25 23 25 16 0 29
-3 29 -6z m-220 -284 c0 -15 -7 -20 -25 -20 -29 0 -33 15 -7 29 25 15 32 13
32 -9z m1415 -10 c3 -6 -5 -10 -19 -10 -19 0 -26 5 -26 20 0 17 3 19 19 10 11
-5 23 -15 26 -20z m-811 -235 c-5 -12 -10 -13 -20 -4 -19 15 -18 19 6 19 13 0
18 -5 14 -15z m-724 -345 c-12 -16 -26 -30 -31 -30 -5 0 -9 14 -9 30 0 27 3
30 31 30 l30 0 -21 -30z m-590 -180 c0 -13 -7 -20 -20 -20 -23 0 -26 10 -8 28
18 18 28 15 28 -8z m300 -154 c-8 -8 -25 -17 -37 -21 -19 -5 -23 -2 -23 14 0
18 6 21 37 21 32 0 35 -2 23 -14z m1740 -176 c0 -11 -4 -20 -8 -20 -5 0 -17 9
-27 20 -18 20 -17 20 8 20 20 0 27 -5 27 -20z m-2340 -10 c0 -16 -7 -20 -32
-20 l-33 1 24 19 c30 25 41 25 41 0z m3325 0 c18 -19 17 -20 -3 -20 -15 0 -22
6 -22 20 0 11 2 20 3 20 2 0 12 -9 22 -20z m-790 -240 c3 -5 -1 -10 -10 -10
-9 0 -13 5 -10 10 3 6 8 10 10 10 2 0 7 -4 10 -10z m1195 -266 c0 -2 -9 -4
-20 -4 -11 0 -20 4 -20 9 0 5 9 7 20 4 11 -3 20 -7 20 -9z m-3950 -253 c0 -12
-20 -25 -27 -18 -7 7 6 27 18 27 5 0 9 -4 9 -9z m15 -51 c3 -4 -4 -19 -15 -33
-25 -31 -25 -37 -1 -37 15 0 20 -9 23 -41 4 -46 5 -46 -42 -50 l-35 -4 2 80
c2 44 5 85 7 91 5 12 53 7 61 -6z m4362 -136 c8 -20 3 -22 -34 -17 -29 5 -33
9 -33 34 l0 30 31 -16 c16 -9 33 -23 36 -31z m-4372 -74 c3 -6 -3 -10 -14 -10
-12 0 -21 2 -21 4 0 2 -3 12 -7 21 -5 15 -3 16 15 6 11 -6 24 -16 27 -21z
m4472 -2 c23 -19 14 -28 -27 -28 -36 0 -40 2 -40 26 0 24 3 25 27 19 16 -4 34
-11 40 -17z"></path>
<path d="M3230 5410 c0 -13 -12 -28 -30 -38 -40 -23 -38 -34 8 -30 36 3 37 4
40 46 2 25 -1 42 -7 42 -6 0 -11 -9 -11 -20z"></path>
<path d="M4462 5388 c3 -39 6 -43 32 -46 41 -5 57 14 23 27 -20 8 -27 18 -27
36 0 16 -6 25 -16 25 -12 0 -14 -9 -12 -42z"></path>
<path d="M6880 5397 c0 -13 -5 -28 -12 -35 -15 -15 -4 -26 17 -19 17 7 22 77
5 77 -5 0 -10 -10 -10 -23z"></path>
<path d="M512 5283 c2 -23 8 -29 36 -31 38 -4 42 10 7 26 -14 6 -25 16 -25 22
0 5 -5 10 -11 10 -6 0 -9 -12 -7 -27z"></path>
<path d="M2893 5276 c-31 -15 -29 -28 4 -24 17 2 29 10 31 21 4 19 -3 20 -35
3z"></path>
<path d="M4867 5274 c-13 -13 5 -24 39 -24 19 0 34 5 34 10 0 6 -9 10 -19 10
-11 0 -26 2 -33 5 -8 3 -17 3 -21 -1z"></path>
<path d="M6538 5273 c-42 -6 -33 -25 10 -21 20 2 36 7 35 13 -2 12 -10 13 -45
8z"></path>
<path d="M3010 5259 c0 -5 5 -7 10 -4 6 3 10 8 10 11 0 2 -4 4 -10 4 -5 0 -10
-5 -10 -11z"></path>
<path d="M4765 5260 c3 -5 8 -10 11 -10 2 0 4 5 4 10 0 6 -5 10 -11 10 -5 0
-7 -4 -4 -10z"></path>
<path d="M817 5211 c-6 -26 0 -31 40 -31 42 0 42 14 1 34 -38 20 -35 20 -41
-3z"></path>
<path d="M5062 5208 c2 -19 10 -24 46 -26 49 -4 58 15 12 25 -17 3 -33 10 -36
14 -11 18 -25 8 -22 -13z"></path>
<path d="M6243 5211 c-43 -19 -42 -31 2 -31 23 0 38 6 42 16 9 25 -9 31 -44
15z"></path>
<path d="M2700 5190 c0 -5 7 -10 15 -10 8 0 15 5 15 10 0 6 -7 10 -15 10 -8 0
-15 -4 -15 -10z"></path>
<path d="M2596 5124 c-13 -18 -15 -29 -8 -36 18 -18 42 -1 42 32 0 36 -9 38
-34 4z"></path>
<path d="M1112 5033 c2 -23 8 -29 36 -31 38 -4 42 10 7 26 -14 6 -25 16 -25
22 0 5 -5 10 -11 10 -6 0 -9 -12 -7 -27z"></path>
<path d="M5955 5049 c-4 -5 -18 -14 -31 -19 -37 -15 -29 -32 14 -28 32 3 37 7
40 31 3 27 -11 37 -23 16z"></path>
<path d="M1204 4955 c-9 -22 4 -35 36 -35 41 0 45 16 9 34 -39 19 -38 19 -45
1z"></path>
<path d="M5827 4957 c-36 -15 -29 -32 14 -32 28 0 35 4 37 23 4 24 -7 26 -51
9z"></path>
<path d="M1312 4868 c3 -30 6 -33 41 -36 43 -4 49 9 12 26 -14 7 -28 19 -31
27 -11 27 -25 16 -22 -17z"></path>
<path d="M5743 4884 c-3 -8 -16 -20 -29 -25 -37 -14 -29 -31 14 -27 34 3 37 6
40 36 3 33 -14 45 -25 16z"></path>
<path d="M2570 4826 c0 -7 49 -56 56 -56 3 0 4 12 2 28 -2 21 -9 28 -30 30
-16 2 -28 1 -28 -2z"></path>
<path d="M5067 4823 c-10 -10 -8 -43 2 -43 5 0 11 7 15 15 3 8 12 15 21 15 8
0 15 5 15 10 0 11 -43 14 -53 3z"></path>
<path d="M1414 4796 c-13 -34 0 -51 44 -54 47 -4 57 13 17 28 -14 5 -28 17
-31 25 -8 19 -23 19 -30 1z"></path>
<path d="M2670 4650 c0 -5 7 -10 15 -10 9 0 18 -7 21 -15 9 -24 24 -17 24 10
0 21 -5 25 -30 25 -16 0 -30 -4 -30 -10z"></path>
<path d="M4970 4630 c0 -36 2 -37 35 -5 32 33 31 35 -5 35 -27 0 -30 -3 -30
-30z"></path>
<path d="M1525 4590 c3 -5 8 -10 11 -10 2 0 4 5 4 10 0 6 -5 10 -11 10 -5 0
-7 -4 -4 -10z"></path>
<path d="M5423 4531 c-30 -25 -29 -33 5 -29 19 2 28 9 30 26 4 27 -6 28 -35 3z"></path>
<path d="M1622 4524 c2 -12 13 -20 31 -22 30 -4 37 12 10 22 -10 3 -24 9 -31
12 -10 4 -13 0 -10 -12z"></path>
<path d="M2760 4490 c0 -6 11 -15 24 -20 13 -5 29 -17 34 -27 13 -22 20 -16
24 22 3 29 1 30 -39 33 -26 2 -43 -1 -43 -8z"></path>
<path d="M5328 4450 c-36 -37 -35 -42 5 -38 28 3 32 7 35 36 4 39 -5 40 -40 2z"></path>
<path d="M2902 4399 c2 -7 10 -15 17 -17 8 -3 12 1 9 9 -2 7 -10 15 -17 17 -8
3 -12 -1 -9 -9z"></path>
<path d="M4656 4312 c-2 -4 -1 -13 3 -20 6 -9 15 -10 39 -1 18 6 32 15 32 20
0 11 -67 12 -74 1z"></path>
<path d="M1830 4270 c0 -13 28 -25 38 -16 3 4 0 11 -8 16 -20 13 -30 12 -30 0z"></path>
<path d="M4570 4215 c0 -14 5 -25 10 -25 6 0 10 4 10 9 0 5 3 16 6 25 4 11 1
16 -10 16 -10 0 -16 -9 -16 -25z"></path>
<path d="M5140 4175 c-7 -9 -10 -18 -7 -21 10 -11 37 5 37 21 0 19 -14 19 -30
0z"></path>
<path d="M3100 4141 c0 -10 30 -24 37 -17 3 3 2 9 -2 15 -8 13 -35 15 -35 2z"></path>
<path d="M5018 4105 c-36 -31 -35 -37 5 -33 27 2 33 8 35 31 4 33 -5 34 -40 2z"></path>
<path d="M2022 4014 c2 -12 13 -20 31 -22 30 -4 37 12 10 22 -10 3 -24 9 -31
12 -10 4 -13 0 -10 -12z"></path>
<path d="M4367 3983 c-4 -3 -7 -19 -7 -35 0 -30 17 -38 27 -12 3 8 16 20 29
25 13 4 24 13 24 19 0 11 -63 14 -73 3z"></path>
<path d="M3280 3896 c0 -7 49 -56 56 -56 3 0 4 12 2 28 -2 21 -9 28 -30 30
-16 2 -28 1 -28 -2z"></path>
<path d="M4267 3893 c-8 -7 -10 -63 -3 -63 3 0 18 14 35 31 17 17 31 32 31 35
0 7 -56 5 -63 -3z"></path>
<path d="M4836 3834 c-4 -9 -4 -19 -2 -21 8 -8 26 8 26 23 0 19 -16 18 -24 -2z"></path>
<path d="M2232 3753 c2 -10 13 -19 26 -21 26 -4 28 6 5 24 -25 18 -35 17 -31
-3z"></path>
<path d="M3480 3642 c0 -5 9 -12 21 -15 11 -3 23 -15 26 -26 9 -33 25 -24 21
12 -3 28 -7 32 -35 35 -18 2 -33 -1 -33 -6z"></path>
<path d="M3950 3524 c0 -14 3 -24 8 -22 4 3 22 10 40 17 44 18 40 31 -8 31
-36 0 -40 -2 -40 -26z"></path>
<path d="M2432 3504 c2 -12 13 -20 31 -22 30 -4 37 12 10 22 -10 3 -24 9 -31
12 -10 4 -13 0 -10 -12z"></path>
<path d="M4543 3503 c-18 -6 -16 -23 1 -23 17 0 30 16 19 23 -5 2 -14 2 -20 0z"></path>
<path d="M3853 3465 c-3 -9 -3 -18 0 -21 6 -7 47 18 47 28 0 15 -41 8 -47 -7z"></path>
<path d="M2542 3428 c3 -29 7 -33 36 -36 39 -4 40 2 3 39 -37 37 -43 36 -39
-3z"></path>
<path d="M4436 3445 c-3 -8 -17 -20 -31 -27 -37 -17 -31 -30 13 -26 34 3 37 6
40 36 3 33 -11 44 -22 17z"></path>
<path d="M3670 3381 c0 -6 6 -11 14 -11 7 0 19 -7 26 -15 18 -22 32 -18 28 8
-2 17 -11 23 -35 25 -19 2 -33 -1 -33 -7z"></path>
<path d="M2632 3258 c2 -18 11 -24 36 -26 18 -2 32 1 32 7 0 6 -6 11 -14 11
-7 0 -19 7 -26 15 -18 22 -32 18 -28 -7z"></path>
<path d="M4226 3155 c-11 -8 -17 -18 -14 -21 11 -10 48 7 48 22 0 18 -10 17
-34 -1z"></path>
<path d="M4122 3080 c-7 -11 -19 -20 -27 -20 -8 0 -15 -4 -15 -10 0 -5 16 -10
35 -10 32 0 35 2 35 30 0 35 -10 38 -28 10z"></path>
<path d="M2852 2993 c2 -10 13 -19 26 -21 26 -4 28 6 5 24 -25 18 -35 17 -31
-3z"></path>
<path d="M4070 2872 c0 -5 11 -14 25 -20 14 -7 28 -19 31 -27 11 -27 24 -16
24 20 0 34 -1 35 -40 35 -22 0 -40 -4 -40 -8z"></path>
<path d="M4220 2781 c0 -10 30 -24 37 -17 3 3 2 9 -2 15 -8 13 -35 15 -35 2z"></path>
<path d="M3030 2745 c0 -22 4 -25 40 -25 22 0 40 5 40 10 0 6 -8 10 -19 10
-10 0 -24 7 -31 15 -18 22 -30 18 -30 -10z"></path>
<path d="M3033 2605 c-7 -21 4 -32 19 -17 7 7 20 12 30 12 10 0 18 5 18 10 0
17 -60 12 -67 -5z"></path>
<path d="M4280 2613 c0 -7 45 -38 73 -51 5 -2 7 9 5 24 -3 26 -8 29 -40 32
-21 2 -38 0 -38 -5z"></path>
<path d="M4420 2531 c0 -10 30 -24 37 -17 3 3 2 9 -2 15 -8 13 -35 15 -35 2z"></path>
<path d="M4490 2360 c0 -6 11 -15 24 -19 13 -5 26 -17 29 -25 11 -29 28 -17
25 17 -3 29 -6 32 -40 35 -23 2 -38 -1 -38 -8z"></path>
<path d="M3373 2303 c-24 -9 -13 -23 17 -23 32 0 40 14 14 24 -9 3 -16 6 -17
5 -1 0 -8 -3 -14 -6z"></path>
<path d="M2740 2264 c0 -11 5 -14 16 -10 9 3 22 6 30 6 8 0 14 5 14 10 0 6
-13 10 -30 10 -21 0 -30 -5 -30 -16z"></path>
<path d="M4622 2271 c2 -7 7 -12 11 -12 12 1 9 15 -3 20 -7 2 -11 -2 -8 -8z"></path>
<path d="M3447 2231 c-6 -26 0 -31 40 -31 40 0 42 12 6 31 -16 7 -31 15 -34
17 -4 1 -9 -6 -12 -17z"></path>
<path d="M2547 2013 c-10 -9 -9 -46 1 -41 48 24 62 32 62 40 0 10 -54 11 -63
1z"></path>
<path d="M4800 2013 c0 -10 52 -35 58 -28 2 2 2 11 -1 20 -6 15 -57 22 -57 8z"></path>
<path d="M3093 1977 c-44 -15 -42 -29 4 -25 27 2 39 8 41 21 4 19 2 19 -45 4z"></path>
<path d="M3642 1969 c5 -16 58 -25 58 -10 0 6 -6 11 -14 11 -8 0 -22 3 -32 7
-12 4 -15 2 -12 -8z"></path>
<path d="M2437 1943 c-10 -10 -8 -63 2 -63 5 0 11 7 15 15 3 8 17 20 31 27 14
6 25 15 25 20 0 10 -64 11 -73 1z"></path>
<path d="M3000 1911 c-5 -11 -19 -23 -30 -26 -34 -11 -22 -26 18 -23 34 3 37
6 40 36 4 35 -12 43 -28 13z"></path>
<path d="M5000 1762 c0 -11 51 -35 58 -28 2 3 2 12 -1 21 -7 15 -57 22 -57 7z"></path>
<path d="M3852 1719 c5 -17 48 -25 48 -10 0 6 -4 11 -9 11 -5 0 -17 3 -27 7
-12 4 -15 2 -12 -8z"></path>
<path d="M3947 1648 c-6 -43 3 -51 47 -43 42 8 45 17 11 33 -14 7 -28 19 -31
27 -10 25 -21 17 -27 -17z"></path>
<path d="M2820 1625 c-7 -9 -10 -18 -7 -21 10 -11 37 5 37 21 0 19 -14 19 -30
0z"></path>
<path d="M2120 1588 c0 -7 4 -20 10 -28 8 -12 11 -12 28 3 10 9 24 17 30 17 7
0 12 5 12 10 0 6 -18 10 -40 10 -25 0 -40 -5 -40 -12z"></path>
<path d="M2702 1550 c-7 -11 -19 -20 -27 -20 -8 0 -15 -4 -15 -10 0 -5 16 -10
35 -10 32 0 35 2 35 30 0 35 -10 38 -28 10z"></path>
<path d="M2025 1499 c-4 -6 -5 -12 -4 -14 7 -7 59 8 59 16 0 13 -47 11 -55 -2z"></path>
<path d="M5200 1502 c0 -8 72 -33 79 -27 2 2 1 11 -2 20 -6 15 -77 23 -77 7z"></path>
<path d="M4052 1464 c2 -12 13 -20 31 -22 30 -4 37 12 10 22 -10 3 -24 9 -31
12 -10 4 -13 0 -10 -12z"></path>
<path d="M4157 1393 c-7 -38 -2 -43 44 -43 43 0 52 16 15 29 -13 5 -26 17 -29
25 -10 25 -24 19 -30 -11z"></path>
<path d="M2510 1285 c-7 -9 -10 -18 -7 -21 10 -11 37 5 37 21 0 19 -14 19 -30
0z"></path>
<path d="M2393 1216 c-32 -15 -29 -26 7 -26 23 0 30 4 30 20 0 22 -4 23 -37 6z"></path>
<path d="M1720 1155 c0 -29 8 -32 26 -7 19 24 17 32 -6 32 -15 0 -20 -7 -20
-25z"></path>
<path d="M2303 1144 c-3 -8 -16 -20 -29 -25 -37 -14 -29 -31 14 -27 34 3 37 6
40 36 3 33 -14 45 -25 16z"></path>
<path d="M4362 1128 c3 -29 7 -33 36 -36 17 -2 32 0 32 3 0 8 -59 65 -67 65
-2 0 -3 -15 -1 -32z"></path>
<path d="M5610 1013 c0 -4 9 -14 20 -21 11 -7 20 -19 20 -27 0 -8 5 -15 11
-15 6 0 9 14 7 33 -2 27 -8 33 -30 35 -16 2 -28 0 -28 -5z"></path>
<path d="M2090 875 c-7 -8 -19 -15 -26 -15 -8 0 -14 -5 -14 -11 0 -6 14 -9 33
-7 24 2 33 8 35 26 4 25 -10 29 -28 7z"></path>
<path d="M4572 868 c2 -15 11 -24 26 -26 27 -4 28 9 4 31 -25 23 -34 21 -30
-5z"></path>
<path d="M1414 825 c-11 -26 5 -33 41 -17 19 9 35 20 35 24 0 15 -70 9 -76 -7z"></path>
<path d="M1973 800 c-41 -19 -41 -26 0 -33 39 -6 47 -2 47 23 0 26 -10 28 -47
10z"></path>
<path d="M5828 763 c-26 -4 -40 -23 -18 -23 6 0 22 -12 35 -26 20 -22 26 -24
31 -11 8 21 1 60 -11 62 -5 1 -22 0 -37 -2z"></path>
<path d="M1317 753 c-9 -8 -9 -43 -1 -43 8 0 33 32 34 43 0 9 -24 9 -33 0z"></path>
<path d="M4652 698 c2 -18 11 -24 36 -26 18 -2 32 1 32 7 0 6 -9 11 -20 11
-11 0 -23 7 -26 15 -9 23 -26 18 -22 -7z"></path>
<path d="M1207 663 c-10 -10 -8 -53 2 -53 5 0 11 9 14 20 3 12 14 20 26 20 12
0 21 5 21 10 0 11 -53 14 -63 3z"></path>
<path d="M5940 661 c0 -12 29 -35 36 -28 11 10 -5 37 -21 37 -8 0 -15 -4 -15
-9z"></path>
<path d="M1882 613 c-13 -28 -3 -51 17 -39 12 8 15 66 4 66 -5 0 -14 -12 -21
-27z"></path>
<path d="M1115 559 c-4 -6 -5 -12 -2 -15 7 -7 37 7 37 17 0 13 -27 11 -35 -2z"></path>
<path d="M1013 485 c-3 -9 -3 -18 -1 -20 6 -7 58 18 58 28 0 14 -51 7 -57 -8z"></path>
<path d="M4760 420 c0 -33 4 -60 10 -60 6 0 10 27 10 60 0 33 -4 60 -10 60 -6
0 -10 -27 -10 -60z"></path>
<path d="M703 315 c-7 -21 4 -32 19 -17 7 7 22 12 35 12 13 0 23 5 23 10 0 17
-70 12 -77 -5z"></path>
<path d="M1860 240 c0 -16 31 -60 42 -60 5 0 8 15 6 33 -2 24 -8 33 -25 35
-13 2 -23 -2 -23 -8z"></path>
<path d="M4657 243 c-10 -9 -8 -43 2 -43 5 0 14 7 21 15 7 8 19 15 26 15 8 0
14 5 14 10 0 11 -53 14 -63 3z"></path>
<path d="M6400 241 c0 -6 9 -11 20 -11 11 0 25 -9 32 -20 18 -28 30 -25 26 8
-3 23 -8 27 -40 30 -22 2 -38 -1 -38 -7z"></path>
<path d="M303 135 c-3 -9 -4 -18 -2 -20 7 -6 79 19 79 27 0 16 -71 8 -77 -7z"></path>
<path d="M2050 140 c0 -5 9 -10 19 -10 11 0 26 -3 35 -6 11 -4 16 -1 16 10 0
12 -10 16 -35 16 -19 0 -35 -4 -35 -10z"></path>
<path d="M4465 140 c-4 -6 7 -10 24 -10 17 0 31 5 31 10 0 6 -11 10 -24 10
-14 0 -28 -4 -31 -10z"></path>
<path d="M6610 143 c0 -5 14 -16 30 -25 26 -15 32 -15 36 -3 3 8 3 19 -1 25
-7 11 -65 14 -65 3z"></path>
<path d="M6770 140 c0 -5 5 -10 11 -10 5 0 7 5 4 10 -3 6 -8 10 -11 10 -2 0
-4 -4 -4 -10z"></path>
<path d="M4155 70 c-1 -3 0 -20 2 -38 5 -32 33 -47 33 -17 0 9 11 20 25 25 14
5 25 14 25 19 0 9 -79 20 -85 11z"></path>
<path d="M6920 61 c0 -11 25 -21 56 -21 15 0 24 6 24 15 0 11 -11 15 -40 15
-22 0 -40 -4 -40 -9z"></path>
</g>
</svg>